<?xml version="1.0" encoding="UTF-8" standalone="no"?>
<svg xmlns="http://www.w3.org/2000/svg" height="391px" width="450px" version="1.1" xmlns:xlink="http://www.w3.org/1999/xlink" viewBox="0 0 450 391">
 <title>Group</title>
 <g id="v1" fill-rule="evenodd" fill="none">
  <g id="Social-media-banner---Dell-AI-data-lake-to-server" transform="translate(-375 -120)">
   <g id="Group" transform="translate(375 120)">
    <g id="logo-dell" fill-rule="nonzero" fill="#fff" transform="translate(296.41)">
     <path id="Shape" d="m74.026 0.22918h4.736c23.038 1.2993 39.468 10.047 51.638 22.307 12.18 12.26 21.19 28.43 22.39 51.566v4.584c-1.17 23.504-10.33 39.024-22.39 51.644-12.66 11.99-28.22 21.07-51.714 22.23h-4.66c-23.035-1.3-39.465-10.05-51.643-22.31-12.177-12.26-21.18-28.43-22.383-51.564v-4.584c0.059842-0.016 0.089127-0.063 0.076394-0.152 1.1516-23.048 10.203-39.386 22.307-51.49 12.161-12.16 28.757-20.971 51.643-22.231v0.00018zm-14.973 10.925c-4.539 1.215-8.61 2.759-12.3 4.583-11.23 5.553-20.491 13.498-26.967 23.682-6.321 9.941-11.793 22.728-11.001 39.496 0.5001 10.571 2.912 19.464 6.723 27.045 7.525 14.97 18.981 25.99 34.836 32.7 7.84 3.31 17.555 5.64 28.495 5.11 10.494-0.5 19.586-2.85 27.121-6.64 14.76-7.43 26.4-18.88 32.85-34.68 3.26-7.999 5.73-17.235 5.19-28.423-1.01-21.195-9.63-35.566-21-46.524-5.63-5.423-12.41-10.035-20.4-13.369-7.753-3.235-17.843-5.6332-28.65-5.1188-5.31 0.2527-10.324 0.9141-14.897 2.1388z"/>
     <path id="Shape" d="m69.366 56.608c2.42 1.603 4.896 3.151 7.181 4.889-5.162 3.241-10.222 6.585-15.355 9.855 0.779 0.596 1.665 1.085 2.444 1.681 5.176-3.279 10.353-6.556 15.508-9.855 2.313 1.431 4.589 2.898 6.723 4.507-5.166 3.264-10.159 6.699-15.279 10.008 0.759 0.617 1.689 1.062 2.521 1.604 5.292-3.238 10.452-6.609 15.661-9.931v-10.849h11.46v21.62c3.23 0.178 6.8 0.025 10.16 0.076v10.161h-21.62v-10.314c-6.352 3.86-12.862 8.224-19.251 12.3-6.654-4.321-13.068-8.884-19.71-13.216-1.924 6.099-6.494 10.688-14.057 11.23-4.716 0.337-10.075-0.252-15.508 0v-31.857c6.793 0.45 14.249-0.908 19.634 0.764 4.76 1.479 8.136 5.277 9.702 10.008 6.647-4.176 13.188-8.456 19.786-12.682v0.001zm-38.197 12.147v11.459c2.73 0.013 4.806 0.172 6.417-1.07 2.397-1.846 2.88-6.423 0.764-8.862-1.412-1.627-3.796-1.969-7.105-1.757-0.089 0.013-0.083 0.121-0.076 0.229v0.001z"/>
     <path id="Path" d="m113.37 58.518h11.46v21.696h10.08v10.16h-21.62v-31.627c0-0.108-0.01-0.216 0.08-0.229z"/>
    </g>
    <g id="logo-ubuntu_cof-orange-hex" fill-rule="nonzero">
     <path id="Path" fill="#fff" d="m152.5 76.251c0 42.109-34.14 76.249-76.251 76.249-42.112 0-76.249-34.14-76.249-76.249 0-42.113 34.137-76.251 76.249-76.251 42.111 0 76.251 34.138 76.251 76.251z"/>
     <path id="Shape" fill="#DD4814" d="m24.401 66.071c-5.624 0-10.18 4.557-10.18 10.181 0 5.621 4.556 10.178 10.18 10.178 5.621 0 10.179-4.557 10.179-10.178 0-5.624-4.557-10.181-10.179-10.181zm72.686 46.269c-4.87 2.81-6.536 9.03-3.726 13.9 2.811 4.87 9.039 6.54 13.899 3.73 4.87-2.81 6.54-9.04 3.73-13.91-2.81-4.86-9.04-6.53-13.903-3.72zm-50.574-36.09c0-10.061 5-18.947 12.645-24.328l-7.442-12.467c-8.909 5.952-15.536 15.052-18.289 25.709 3.215 2.621 5.27 6.613 5.27 11.087 0 4.473-2.055 8.465-5.271 11.085 2.753 10.659 9.38 19.754 18.289 25.714l7.443-12.47c-7.645-5.382-12.645-14.267-12.645-24.33zm29.738-29.737c15.535 0 28.279 11.911 29.619 27.1l14.5-0.212c-0.71-11.214-5.61-21.284-13.14-28.685-3.87 1.462-8.338 1.24-12.203-0.991-3.869-2.234-6.297-6.002-6.962-10.091-3.761-1.041-7.72-1.609-11.814-1.609-7.04 0-13.691 1.653-19.599 4.58l7.072 12.675c3.807-1.772 8.05-2.767 12.527-2.767zm0 59.477c-4.478 0-8.72-1-12.527-2.77l-7.074 12.68c5.909 2.92 12.56 4.58 19.601 4.58 4.093 0 8.052-0.57 11.814-1.61 0.665-4.09 3.094-7.86 6.963-10.1 3.865-2.23 8.332-2.45 12.202-0.98 7.53-7.41 12.43-17.476 13.14-28.69l-14.51-0.212c-1.33 15.19-14.074 27.102-29.609 27.102zm20.834-65.83c4.865 2.812 11.095 1.144 13.905-3.723 2.81-4.87 1.14-11.093-3.73-13.904-4.86-2.811-11.088-1.143-13.9 3.726-2.81 4.867-1.143 11.091 3.725 13.901z"/>
    </g>
    <g id="Group-99" transform="translate(113.83 201.68)">
     <line id="Stroke-1" stroke-width="2" stroke-linejoin="round" y2="157.09" x2="140.98" stroke="#fff" stroke-linecap="round" y1="122.02" x1="141.02"/>
     <g id="Group-98" transform="translate(0 .16043)">
      <path id="Fill-2" fill="#fff" d="m19.93 41.244c-0.139 0-0.278 0.018-0.415 0.053-0.436 0.11-0.802 0.384-1.032 0.769-5.155 8.663-6.288 17.823-3.194 25.789 3.106 7.989 10.033 13.965 19.508 16.822 0.864 0.257 1.835-0.263 2.094-1.125 0.132-0.429 0.086-0.884-0.126-1.28-0.213-0.396-0.567-0.684-0.997-0.814-8.463-2.552-14.623-7.815-17.344-14.822-2.712-6.98-1.666-15.094 2.949-22.85 0.475-0.796 0.212-1.83-0.586-2.305-0.262-0.156-0.557-0.237-0.857-0.237"/>
      <path id="Fill-4" fill="#fff" d="m51.924 14.301c-0.217 0-0.435 0.043-0.641 0.128-11.855 4.908-22.228 13.496-22.664 13.858-0.345 0.287-0.556 0.692-0.597 1.138-0.04 0.448 0.096 0.885 0.384 1.23 0.574 0.688 1.674 0.789 2.368 0.214 0.099-0.082 10.476-8.646 21.793-13.332 0.856-0.355 1.266-1.34 0.911-2.196-0.173-0.415-0.495-0.739-0.911-0.912-0.207-0.085-0.424-0.128-0.643-0.128"/>
      <path id="Fill-6" fill="#fff" d="m93.338 4.0159c-11.513 0-23.936 3.6608-24.466 3.8182-0.43 0.1268-0.786 0.4125-1.001 0.8067-0.216 0.3942-0.265 0.8495-0.138 1.2788 0.254 0.8644 1.218 1.3964 2.086 1.1394 0.53-0.152 12.707-3.6802 23.519-3.6802 0.927 0 1.682-0.7533 1.682-1.6807s-0.755-1.6822-1.682-1.6822"/>
      <path id="Fill-8" fill="#fff" d="m109.49 4.189c-0.93 0-1.68 0.7517-1.69 1.6746 0 0.9274 0.75 1.6852 1.68 1.6883 21.59 0.0779 40.03 9.7781 40.22 9.8751 0.81 0.418 1.85 0.081 2.27-0.72 0.2-0.397 0.24-0.853 0.11-1.28-0.14-0.428-0.43-0.778-0.83-0.984-0.79-0.41-19.33-9.8965-41.76-10.254"/>
      <path id="Fill-10" fill="#fff" d="m189.8 47.215l0.43 0.362c10.44 11.472 15.54 21.374 15.59 21.47 0.41 0.799 1.46 1.143 2.26 0.735 0.83-0.419 1.16-1.433 0.74-2.258-0.55-1.088-14.23-26.442-40.74-43.406-0.38-0.241-0.84-0.301-1.27-0.195-0.44 0.106-0.81 0.377-1.04 0.76-0.23 0.385-0.3 0.836-0.19 1.272 0.1 0.437 0.37 0.805 0.76 1.039 7.58 4.605 13.57 10.018 20.19 16.69l0.85 0.854-15.07 5.365c-0.87 0.31-1.33 1.274-1.02 2.148 0.3 0.849 1.28 1.329 2.15 1.019l16.36-5.855z"/>
      <path id="Fill-12" fill="#fff" d="m53.398 88.197c-0.802 0-1.515 0.576-1.657 1.391-0.078 0.443 0.021 0.889 0.278 1.256 0.258 0.368 0.644 0.612 1.086 0.69 13.199 2.316 24.805 18.416 24.932 18.596 0.527 0.71 1.626 0.89 2.35 0.36 0.362-0.27 0.6-0.65 0.669-1.1 0.069-0.44-0.04-0.89-0.304-1.25-0.55-0.75-12.535-17.367-27.066-19.917-0.097-0.018-0.193-0.026-0.288-0.026"/>
      <path id="Fill-14" fill="#fff" d="m94.009 120.51c-0.585 0-1.155 0.3-1.465 0.85-0.457 0.8-0.176 1.83 0.631 2.29 3.583 2.04 6.606 2.16 10.795 2.16 5.93 0 10.28-2.09 10.47-2.18 0.83-0.41 1.17-1.41 0.77-2.25-0.4-0.83-1.41-1.18-2.24-0.78-0.4 0.19-8.8 5.44-18.133 0.13-0.261-0.15-0.547-0.22-0.828-0.22"/>
      <path id="Fill-16" fill="#fff" d="m135.96 122.63c7.8 0 11.71 3.13 11.95 3.32 0.75 0.58 1.83 0.43 2.38-0.28 0.57-0.73 0.44-1.79-0.29-2.36-0.33-0.25-5.6-5.54-17.2-3.7-0.91 0.15-1.54 1.01-1.39 1.92 0.14 0.92 1.02 1.54 1.92 1.4 1.35-0.21 1.41-0.3 2.63-0.3"/>
      <path id="Fill-18" fill="#fff" d="m166.3 128.85c-0.45 0-0.91 0.19-1.24 0.55-0.63 0.69-0.57 1.75 0.11 2.38 7.47 6.78 14.72 9.15 23.37 9.15 11.45 0 19.68-6.1 19.76-6.16 0.73-0.55 0.87-1.61 0.31-2.35-0.55-0.73-1.61-0.88-2.35-0.32-0.79 0.59-18.72 15.46-38.83-2.81-0.32-0.29-0.72-0.44-1.13-0.44"/>
      <path id="Fill-20" fill="#fff" d="m214.92 81.881c-0.18 0-0.37 0.031-0.55 0.093-0.88 0.303-1.34 1.263-1.04 2.138 0.07 0.203 7.02 20.518 3.1 32.958-0.28 0.89 0.21 1.83 1.1 2.11s1.83-0.23 2.11-1.1c4.23-13.45-2.83-34.19-3.13-35.065-0.15-0.425-0.45-0.767-0.86-0.964-0.23-0.113-0.48-0.17-0.73-0.17"/>
      <path id="Fill-22" fill="#fff" d="m150.61 26.054c-0.33 0-0.67 0.098-0.96 0.302l-41.14 28.66c-0.76 0.531-0.95 1.582-0.42 2.341 0.51 0.732 1.61 0.927 2.34 0.414l41.14-28.66c0.76-0.532 0.95-1.581 0.42-2.341-0.33-0.466-0.85-0.716-1.38-0.716"/>
      <path id="Fill-24" fill="#fff" d="m155.32 55.281c-0.19 0-0.37 0.032-0.55 0.094l-15.14 5.258c-0.56 0.195-0.98 0.678-1.09 1.26l-1.86 9.377c-0.09 0.44 0 0.888 0.25 1.262 0.25 0.373 0.63 0.626 1.07 0.714 0.02 0.004 0.04 0.007 0.06 0.01 0.37-0.961 0.47-4.455 0.51-6.009 0.04-1.361 0.07-2.151 0.15-2.535l0.09-0.463 3.3-0.915 13.76-4.782c0.88-0.304 1.34-1.264 1.03-2.139-0.14-0.426-0.45-0.769-0.85-0.966-0.24-0.11-0.48-0.166-0.73-0.166"/>
      <path id="Fill-26" fill="#fff" d="m102.96 66.652c-0.93 0-1.68 0.755-1.68 1.683v29.469l-9.137 8.836c-0.655 0.65-0.655 1.72 0 2.37 0.634 0.64 1.743 0.64 2.376 0l9.631-9.322c0.32-0.317 0.49-0.739 0.49-1.188v-30.165c0-0.928-0.75-1.683-1.68-1.683"/>
      <path id="Fill-28" fill="#fff" d="m137.76 77.815c-0.45 0-0.87 0.174-1.19 0.492-0.65 0.655-0.65 1.722 0 2.377l19.46 19.456v15.23c0 0.93 0.75 1.69 1.68 1.69 0.92 0 1.68-0.76 1.68-1.69v-15.27l10.3-11.135 33.41-7.005c0.9-0.19 1.49-1.082 1.3-1.989-0.09-0.441-0.35-0.818-0.73-1.064s-0.82-0.331-1.26-0.237l-33.94 7.114c-0.34 0.073-0.65 0.248-0.89 0.506l-9.92 10.727-18.71-18.71c-0.32-0.318-0.74-0.492-1.19-0.492"/>
      <path id="Combined-Shape" fill="#fff" d="m196.62 112.83l8.45 7.22c0.7 0.6 0.79 1.67 0.19 2.37-0.58 0.68-1.69 0.77-2.37 0.19l-8.81-7.5c1.03-0.53 1.9-1.32 2.54-2.28zm-21.99-28.555c0.54 0 1.08 0.262 1.4 0.743l11.97 17.832c-1.04 0.49-1.94 1.23-2.61 2.15l-12.15-18.107c-0.25-0.373-0.34-0.821-0.26-1.262 0.09-0.44 0.35-0.821 0.72-1.071 0.28-0.193 0.61-0.285 0.93-0.285z"/>
      <path id="Fill-32" fill="#fff" d="m53.395 82.913c-0.925 0-1.68 0.755-1.68 1.681 0 0.927 0.755 1.682 1.68 1.682h21.395c0.928 0 1.683-0.755 1.683-1.682l-0.002-22.77h16.617c0.928 0 1.683-0.754 1.683-1.681s-0.755-1.682-1.683-1.682h-16.644l-0.369-23.045h23.524v16.534c0 0.928 0.751 1.683 1.681 1.683s1.68-0.755 1.68-1.683v-32.519c0-0.927-0.75-1.681-1.68-1.681s-1.681 0.754-1.681 1.681v12.622h-30.821l-4.478-11.792c-0.161-0.421-0.474-0.754-0.882-0.937-0.411-0.185-0.868-0.199-1.286-0.038-0.42 0.159-0.753 0.474-0.938 0.883-0.184 0.409-0.197 0.865-0.037 1.285l4.889 12.878c0.246 0.648 0.879 1.084 1.572 1.084h5.094l0.37 23.045h-33.546l-10.183-16.335c-0.492-0.787-1.531-1.028-2.318-0.538-0.785 0.491-1.027 1.531-0.536 2.318l10.676 17.126c0.309 0.495 0.844 0.792 1.427 0.792h34.508v21.089h-19.715z"/>
      <path id="Fill-34" fill="#fff" d="m122.26 83.711c-0.14 3.361-0.24 17.339-0.29 27.839 0 0.93 0.76 1.68 1.68 1.68 0.93 0 1.68-0.75 1.68-1.68v-27.774l-3.07-0.065z"/>
      <path id="Fill-36" fill="#D8502B" d="m130.5 147.8c0 3.78-3.07 6.85-6.84 6.85-3.79 0-6.85-3.07-6.85-6.85s3.06-6.84 6.85-6.84c3.77 0 6.84 3.06 6.84 6.84"/>
      <path id="Stroke-38" stroke-linejoin="round" d="m128.67 142.87c-2.76-2.76-7.23-2.76-9.99 0s-2.76 7.23 0 9.99c2.76 2.75 7.23 2.75 9.99 0 2.76-2.76 2.76-7.23 0-9.99z" stroke="#fff" stroke-linecap="round" stroke-width="2"/>
      <line id="Stroke-40" stroke-width="2" stroke-linejoin="round" y2="140.44" x2="123.66" stroke="#fff" stroke-linecap="round" y1="130.53" x1="123.7"/>
      <path id="Stroke-42" stroke-linejoin="round" d="m146 159.56c-2.76-2.76-7.23-2.76-9.99 0s-2.76 7.23 0 9.99 7.23 2.76 9.99 0 2.76-7.23 0-9.99z" stroke="#fff" stroke-linecap="round" stroke-width="2"/>
      <path id="Fill-44" fill="#D8502B" d="m165.2 179.34c0 3.79-3.06 6.85-6.84 6.85-3.79 0-6.85-3.06-6.85-6.85 0-3.78 3.06-6.84 6.85-6.84 3.78 0 6.84 3.06 6.84 6.84"/>
      <path id="Stroke-46" stroke-linejoin="round" d="m163.37 174.35c-2.76-2.76-7.22-2.76-9.98 0-2.76 2.75-2.76 7.22 0 9.98s7.22 2.76 9.98 0 2.76-7.23 0-9.98z" stroke="#fff" stroke-linecap="round" stroke-width="2"/>
      <line id="Stroke-48" stroke-width="2" stroke-linejoin="round" y2="171.98" x2="158.34" stroke="#fff" stroke-linecap="round" y1="134.34" x1="158.37"/>
      <path id="Fill-50" fill="#D8502B" d="m109.47 60.143c0 4.524-3.67 8.191-8.19 8.191-4.524 0-8.192-3.667-8.192-8.191 0-4.525 3.668-8.191 8.192-8.191 4.52 0 8.19 3.666 8.19 8.191"/>
      <path id="Fill-52" fill="#5F605C" d="m101.28 54.396c-3.169 0-5.747 2.578-5.747 5.747 0 3.167 2.578 5.745 5.747 5.745 3.17 0 5.75-2.578 5.75-5.745 0-3.169-2.58-5.747-5.75-5.747m0 16.382c-5.866 0-10.636-4.77-10.636-10.635 0-5.866 4.77-10.637 10.636-10.637 5.87 0 10.64 4.771 10.64 10.637 0 5.865-4.77 10.635-10.64 10.635"/>
      <path id="Fill-54" fill="#D8502B" d="m172.68 54.029c0 4.525-3.67 8.191-8.19 8.191-4.53 0-8.19-3.666-8.19-8.191 0-4.524 3.66-8.19 8.19-8.19 4.52 0 8.19 3.666 8.19 8.19"/>
      <path id="Fill-56" fill="#5F605C" d="m24.257 29.945c-3.167 0-5.746 2.578-5.746 5.747 0 3.167 2.579 5.744 5.746 5.744 3.169 0 5.747-2.577 5.747-5.744 0-3.169-2.578-5.747-5.747-5.747m0 16.382c-5.864 0-10.635-4.77-10.635-10.635 0-5.866 4.771-10.638 10.635-10.638 5.866 0 10.636 4.772 10.636 10.638 0 5.865-4.77 10.635-10.636 10.635"/>
      <path id="Fill-58" fill="#D8502B" d="m53.395 84.594c0 4.524-3.667 8.191-8.191 8.191s-8.191-3.667-8.191-8.191 3.667-8.191 8.191-8.191 8.191 3.667 8.191 8.191"/>
      <path id="Fill-60" fill="#D8502B" d="m219.14 76.403c0 4.523-3.67 8.191-8.2 8.191-4.52 0-8.19-3.668-8.19-8.191 0-4.524 3.67-8.191 8.19-8.191 4.53 0 8.2 3.667 8.2 8.191"/>
      <path id="Fill-62" fill="#5F605C" d="m128.68 78.849c-0.44 0-0.87-0.117-1.27-0.358l-20.22-12.327c-1.15-0.703-1.52-2.208-0.81-3.36 0.7-1.153 2.2-1.517 3.36-0.816l20.21 12.327c1.16 0.703 1.52 2.208 0.82 3.36-0.46 0.756-1.27 1.174-2.09 1.174"/>
      <path id="Fill-64" fill="#D8502B" d="m220.36 125.24c0 4.53-3.67 8.2-8.19 8.2-4.53 0-8.19-3.67-8.19-8.2 0-4.52 3.66-8.19 8.19-8.19 4.52 0 8.19 3.67 8.19 8.19"/>
      <path id="Fill-66" fill="#D8502B" d="m68.698 13.318c0 4.524-3.667 8.191-8.191 8.191s-8.191-3.667-8.191-8.191c0-4.5238 3.667-8.1907 8.191-8.1907s8.191 3.6669 8.191 8.1907"/>
      <path id="Fill-68" fill="#D8502B" d="m181.48 85.955c0 3.781-3.06 6.846-6.84 6.846-3.79 0-6.85-3.065-6.85-6.846 0-3.782 3.06-6.847 6.85-6.847 3.78 0 6.84 3.065 6.84 6.847"/>
      <path id="Fill-70" fill="#D8502B" d="m81.637 59.164c0 3.782-3.065 6.847-6.846 6.847-3.782 0-6.847-3.065-6.847-6.847 0-3.781 3.065-6.846 6.847-6.846 3.781 0 6.846 3.065 6.846 6.846"/>
      <path id="Fill-74" fill="#E95420" d="m139.74 65.767c0 13.745-11.14 24.886-24.89 24.886-13.74 0-24.886-11.141-24.886-24.886s11.146-24.886 24.886-24.886c13.75 0 24.89 11.141 24.89 24.886"/>
      <path id="Fill-76" fill="#fff" d="m110.11 59.133c-0.45 1.038-0.97 2.298-1.54 3.785-0.58 1.486-1.18 3.101-1.81 4.842h6.69c-0.62-1.741-1.23-3.365-1.82-4.871-0.58-1.505-1.09-2.758-1.52-3.756zm6 16.402c-0.28-0.802-0.56-1.594-0.85-2.376-0.3-0.782-0.58-1.584-0.86-2.406h-8.59c-0.27 0.822-0.55 1.628-0.83 2.42-0.29 0.793-0.57 1.58-0.84 2.362h-3.85c0.77-2.171 1.49-4.176 2.17-6.015 0.69-1.838 1.35-3.579 2.01-5.223 0.65-1.642 1.31-3.207 1.95-4.695 0.64-1.486 1.31-2.953 1.99-4.4h3.53c0.69 1.447 1.35 2.914 2 4.4 0.64 1.488 1.29 3.053 1.95 4.695 0.65 1.644 1.33 3.385 2.02 5.223 0.7 1.839 1.43 3.844 2.19 6.015h-3.99z"/>
      <polygon id="Fill-78" points="122.65 75.534 126.35 75.534 126.35 55.201 122.65 55.201" fill="#fff"/>
      <path id="Stroke-80" stroke-linejoin="round" d="m132.67 47.844c-9.88-9.876-25.89-9.876-35.769 0-9.876 9.876-9.876 25.89 0 35.766 9.879 9.88 25.889 9.88 35.769 0 9.87-9.876 9.87-25.89 0-35.766z" stroke="#fff" stroke-linecap="round" stroke-width="3"/>
      <path id="Fill-81" fill="#E95420" d="m50.953 41.486c0 13.744-11.142 24.886-24.886 24.886s-24.887-11.142-24.887-24.886c0.0004-13.744 11.143-24.887 24.887-24.887s24.886 11.143 24.886 24.887"/>
      <path id="Fill-82" fill="#fff" d="m12.376 30.501c0.429 0.744 0.909 1.653 1.436 2.729 0.529 1.077 1.067 2.205 1.615 3.389 0.547 1.184 1.09 2.386 1.629 3.609 0.538 1.223 1.03 2.352 1.482 3.388 0.449-1.036 0.938-2.165 1.467-3.388 0.527-1.223 1.065-2.425 1.613-3.609 0.549-1.184 1.085-2.312 1.614-3.389 0.528-1.076 1.008-1.985 1.437-2.729h3.333c0.178 1.487 0.348 3.066 0.507 4.739 0.159 1.672 0.304 3.385 0.432 5.134 0.13 1.751 0.249 3.513 0.359 5.282 0.109 1.771 0.204 3.497 0.285 5.18h-3.638c-0.081-2.369-0.175-4.803-0.286-7.307-0.109-2.504-0.274-4.929-0.492-7.277-0.217 0.451-0.471 0.988-0.762 1.613-0.294 0.627-0.607 1.307-0.94 2.04-0.333 0.734-0.671 1.491-1.013 2.275-0.342 0.782-0.675 1.539-0.998 2.272-0.322 0.733-0.62 1.421-0.895 2.055-0.274 0.637-0.507 1.18-0.704 1.629h-2.757c-0.197-0.449-0.431-0.998-0.706-1.644-0.273-0.645-0.571-1.334-0.895-2.067-0.322-0.735-0.654-1.493-0.996-2.275-0.344-0.783-0.68-1.536-1.013-2.26-0.333-0.723-0.645-1.403-0.938-2.038-0.294-0.636-0.549-1.169-0.764-1.6-0.219 2.348-0.384 4.773-0.494 7.277-0.108 2.504-0.203 4.938-0.284 7.307h-3.6363c0.0779-1.683 0.1727-3.424 0.2827-5.224s0.2292-3.585 0.359-5.355c0.1284-1.77 0.2735-3.486 0.4324-5.149s0.33-3.198 0.5088-4.607h3.4194z"/>
      <polygon id="Fill-83" points="45.37 47.637 45.37 50.835 32.518 50.835 32.518 30.501 36.215 30.501 36.215 47.637" fill="#fff"/>
      <path id="Stroke-84" stroke-linejoin="round" d="m43.937 23.552c-9.876-9.877-25.89-9.877-35.766 0-9.8764 9.876-9.8764 25.89-0.0002 35.766 9.8762 9.878 25.89 9.878 35.766 0 9.876-9.876 9.876-25.89 0-35.766z" stroke="#fff" stroke-linecap="round" stroke-width="3"/>
      <path id="Stroke-85" stroke-linejoin="round" d="m164.75 15.177c-3.5-3.492-9.16-3.492-12.65 0-3.49 3.491-3.49 9.152 0 12.643 3.49 3.493 9.15 3.493 12.65 0 3.49-3.491 3.49-9.152 0-12.643z" stroke="#fff" stroke-linecap="round" stroke-width="2"/>
      <path id="Stroke-86" stroke-linejoin="round" d="m107.6 3.9853c-3.49-3.4912-9.154-3.4912-12.645 0-3.493 3.4912-3.493 9.1517 0 12.644 3.491 3.492 9.155 3.492 12.645 0s3.49-9.1525 0-12.644z" stroke="#fff" stroke-linecap="round" stroke-width="2"/>
      <path id="Stroke-87" stroke-linejoin="round" d="m66.823 6.9702c-3.492-3.4912-9.152-3.4912-12.644 0-3.492 3.4908-3.492 9.1518 0 12.643 3.492 3.493 9.152 3.493 12.644 0 3.491-3.491 3.491-9.152 0-12.643z" stroke="#fff" stroke-linecap="round" stroke-width="2"/>
      <path id="Stroke-88" stroke-linejoin="round" d="m79.789 54.203c-2.757-2.758-7.228-2.758-9.987 0-2.758 2.757-2.758 7.23 0 9.987 2.759 2.758 7.23 2.758 9.987 0 2.758-2.757 2.758-7.23 0-9.987z" stroke="#fff" stroke-linecap="round" stroke-width="2"/>
      <path id="Stroke-89" stroke-linejoin="round" d="m51.527 78.256c-3.492-3.491-9.152-3.491-12.643 0-3.493 3.491-3.493 9.152 0 12.643 3.491 3.493 9.151 3.493 12.643 0 3.491-3.491 3.491-9.152 0-12.643z" stroke="#fff" stroke-linecap="round" stroke-width="2"/>
      <path id="Stroke-90" stroke-linejoin="round" d="m164.69 118.93c-3.49-3.49-9.15-3.49-12.64 0-3.5 3.49-3.5 9.15 0 12.64 3.49 3.49 9.15 3.49 12.64 0s3.49-9.15 0-12.64z" stroke="#fff" stroke-linecap="round" stroke-width="2"/>
      <path id="Stroke-91" stroke-linejoin="round" d="m129.97 114.91c-3.49-3.49-9.16-3.49-12.65 0s-3.49 9.15 0 12.65c3.49 3.49 9.16 3.49 12.65 0 3.49-3.5 3.49-9.16 0-12.65z" stroke="#fff" stroke-linecap="round" stroke-width="2"/>
      <path id="Stroke-92" stroke-linejoin="round" d="m93.274 108.88c-3.491-3.49-9.152-3.49-12.643 0-3.493 3.49-3.493 9.15 0 12.65 3.491 3.49 9.152 3.49 12.643 0 3.491-3.5 3.491-9.16 0-12.65z" stroke="#fff" stroke-linecap="round" stroke-width="2"/>
      <path id="Stroke-93" stroke-linejoin="round" d="m195.94 104.16c-2.76-2.76-7.23-2.76-9.99 0s-2.76 7.23 0 9.99c2.76 2.75 7.23 2.75 9.99 0 2.75-2.76 2.75-7.23 0-9.99z" stroke="#fff" stroke-linecap="round" stroke-width="2"/>
      <path id="Stroke-94" stroke-linejoin="round" d="m218.49 118.92c-3.49-3.49-9.15-3.49-12.64 0-3.5 3.49-3.5 9.15 0 12.64 3.49 3.49 9.15 3.49 12.64 0s3.49-9.15 0-12.64z" stroke="#fff" stroke-linecap="round" stroke-width="2"/>
      <path id="Stroke-95" stroke-linejoin="round" d="m217.25 70.076c-3.49-3.491-9.15-3.491-12.64 0s-3.49 9.152 0 12.643c3.49 3.493 9.15 3.493 12.64 0 3.49-3.491 3.49-9.152 0-12.643z" stroke="#fff" stroke-linecap="round" stroke-width="2"/>
      <path id="Stroke-96" stroke-linejoin="round" d="m179.69 80.943c-2.76-2.758-7.23-2.758-9.99 0s-2.76 7.228 0 9.988c2.76 2.757 7.23 2.757 9.99 0 2.76-2.76 2.76-7.23 0-9.988z" stroke="#fff" stroke-linecap="round" stroke-width="2"/>
      <path id="Stroke-97" stroke-linejoin="round" d="m170.81 47.663c-3.49-3.491-9.15-3.491-12.64 0-3.5 3.491-3.5 9.152 0 12.643 3.49 3.493 9.15 3.493 12.64 0 3.49-3.491 3.49-9.152 0-12.643z" stroke="#fff" stroke-linecap="round" stroke-width="2"/>
     </g>
    </g>
   </g>
  </g>
 </g>
</svg>
